<svg xmlns="http://www.w3.org/2000/svg" width="34.153" height="33.768" viewBox="0 0 34.153 33.768"><defs><style>.a{fill:#a5262d;}</style></defs><g transform="translate(-19.876 -18.749)"><path class="a" d="M36.849,18.76c3.965,0,7.93-.023,11.9.008,2.5.023,3.436,1.012,3.686,3.5a7.946,7.946,0,0,0,.778,2.87c1.458,2.749.891,5.181-1.042,7.349-2.017,2.273-4.675,3.421-7.575,2.372a7.827,7.827,0,0,0-5.876.03c-2.311.869-4.449-.536-6.669-.876-2.039-.31-4.358,1.193-6.39.869-4.781-.763-6.926-5.257-5.174-9.773a12.136,12.136,0,0,0,.755-3.1c.242-2.175,1.246-3.225,3.5-3.248C28.775,18.73,32.808,18.76,36.849,18.76Zm8.2,3.973c-.74-.6-1.186-1.254-1.624-1.246-.453.008-.906.65-1.352,1.012.415.468.763,1.163,1.276,1.322C43.684,23.926,44.258,23.261,45.051,22.733Zm4.32,0c-.74-.6-1.186-1.254-1.624-1.246-.453.008-.906.65-1.352,1.012.415.468.763,1.163,1.276,1.322C48,23.926,48.585,23.261,49.371,22.733Z"/><path class="a" d="M51.052,262.308c-3.935,0-7.538.076-11.133-.076a2.419,2.419,0,0,1-1.76-1.548c-.136-4.879-.083-9.758-.083-14.985,3.436,2.062,6.8,2.477,10.309,1.027a2.012,2.012,0,0,1,1.05.053c.279.053.544.279.808.279,3.165,0,6.4-.461,9.464.076a13.148,13.148,0,0,0,9.5-1.4v7.228c0,2.447-.023,4.9.008,7.349.015,1.344-.521,2.024-1.911,1.994-1.284-.03-2.575-.008-4.154-.008,0-3.263-.091-6.4.03-9.547.083-2.024-.71-2.689-2.659-2.591-2.447.121-4.9.076-7.349.015-1.594-.038-2.183.657-2.153,2.205C51.089,255.617,51.052,258.849,51.052,262.308Z" transform="translate(-16.816 -209.811)"/><path class="a" d="M253.078,350.92H246.5V341.6h6.578Z" transform="translate(-209.508 -298.468)"/></g></svg>