<svg xmlns="http://www.w3.org/2000/svg" xmlns:xlink="http://www.w3.org/1999/xlink" width="307" height="197" viewBox="0 0 307 197"><defs><style>.a{fill:#fff;stroke:#f7edee;stroke-width:5px;}.b{fill:#f7edee;}.c{fill:#a5262d;font-size:20px;font-family:Roboto-Black, Roboto;font-weight:800;}.d{stroke:none;}.e{fill:none;}.f{filter:url(#c);}.g{filter:url(#a);}</style><filter id="a" x="0" y="0" width="307" height="197" filterUnits="userSpaceOnUse"><feOffset dy="3" input="SourceAlpha"/><feGaussianBlur stdDeviation="10" result="b"/><feFlood flood-color="#888" flood-opacity="0.161"/><feComposite operator="in" in2="b"/><feComposite in="SourceGraphic"/></filter><filter id="c" x="106.5" y="31.5" width="94" height="94" filterUnits="userSpaceOnUse"><feOffset dy="9" input="SourceAlpha"/><feGaussianBlur stdDeviation="4.5" result="d"/><feFlood flood-color="#ff9797" flood-opacity="0.161"/><feComposite operator="in" in2="d"/><feComposite in="SourceGraphic"/></filter></defs><g transform="translate(11 -388)"><g class="g" transform="matrix(1, 0, 0, 1, -11, 388)"><g class="a" transform="translate(30 27)"><path class="d" d="M30,0H247a0,0,0,0,1,0,0V107a30,30,0,0,1-30,30H0a0,0,0,0,1,0,0V30A30,30,0,0,1,30,0Z"/><path class="e" d="M30,2.5H242A2.5,2.5,0,0,1,244.5,5V107A27.5,27.5,0,0,1,217,134.5H5A2.5,2.5,0,0,1,2.5,132V30A27.5,27.5,0,0,1,30,2.5Z"/></g></g><g class="f" transform="matrix(1, 0, 0, 1, -11, 388)"><circle class="b" cx="33.5" cy="33.5" r="33.5" transform="translate(120 36)"/></g><text class="c" transform="translate(128 465)"><tspan x="0" y="0">EM</tspan></text></g></svg>