<svg xmlns="http://www.w3.org/2000/svg" width="34.6" height="34.615" viewBox="0 0 34.6 34.615"><defs><style>.a{fill:#a5262d;}</style></defs><g transform="translate(-23.9 -24.1)"><path class="a" d="M23.9,101.921a2.1,2.1,0,0,0,.038-.214,1.378,1.378,0,0,1,.764-1.185.994.994,0,0,1,.451-.092c1.33-.015,2.668-.023,4-.031,1.674,0,3.341.015,5.015.008a.947.947,0,0,1,.65.222,1.466,1.466,0,0,1,.589,1.162c-.023,2.018-.023,4.029-.038,6.047a.773.773,0,0,1-.115.39,1.525,1.525,0,0,1-1.376.742H32.584v1.483h.237c1.812,0,3.624.008,5.443-.008a1.587,1.587,0,0,1,1.238.619.863.863,0,0,1,.214.6c0,2.033.023,4.075.031,6.108A1.372,1.372,0,0,1,38.616,119c-.482.031-.963.031-1.437.046h-.268v2.867c-.092-.084-.145-.13-.2-.176-.849-.849-1.7-1.689-2.546-2.538a.49.49,0,0,0-.375-.153c-1.2,0-2.393,0-3.593-.008-.229,0-.459-.031-.688-.031A1.248,1.248,0,0,1,28.3,117.8c-.023-.78-.046-1.552-.046-2.332,0-1.246.008-2.492.015-3.738a1.418,1.418,0,0,1,1.07-1.223c.443-.046.894-.046,1.338-.076.122-.008.237-.023.405-.038-.061-.076-.1-.13-.138-.176-.382-.39-.764-.787-1.162-1.162a.47.47,0,0,0-.29-.092c-1.46-.015-2.92-.023-4.38-.046a.885.885,0,0,1-.428-.138,1.718,1.718,0,0,1-.688-.8.67.67,0,0,1-.046-.214c-.015-.168-.015-.336-.031-.5C23.9,105.491,23.9,103.71,23.9,101.921Zm14.334,12.048c-.008-.015-.015-.038-.023-.054-.176.031-.359.061-.535.084a.339.339,0,0,1-.443-.252,2.125,2.125,0,0,0-1.6-1.43c.153-.122.405-.107.466-.329-.13-.13-.4.084-.405-.214-.161.046-.3.084-.436.138a.8.8,0,0,0-.359.183,5.432,5.432,0,0,0-.558.764c-.2.329-.359.68-.535,1.024a7.992,7.992,0,0,0-2.874-1.407c.023.42.336.68.566.994-.367.1-.413.191-.183.466a5.842,5.842,0,0,0,.543.512c-.038.023-.092.069-.153.107-.191.138-.206.183-.015.329a2.052,2.052,0,0,0,.52.29c.153.061.191.107.107.26a.285.285,0,0,0,.176.451c.1.038.2.061.329.1a2.423,2.423,0,0,1-3.043.176.752.752,0,0,0,.2.275,13.494,13.494,0,0,0,1.292.9,4.074,4.074,0,0,0,2.844.321,4.046,4.046,0,0,0,3.088-2.393.48.48,0,0,1,.451-.359.825.825,0,0,0,.642-.359c-.26-.023-.482-.038-.7-.061a.168.168,0,0,0-.008-.061A1.147,1.147,0,0,0,38.234,113.969Zm-8.547-6.444h0c.635,0,1.269.015,1.9-.008a1.09,1.09,0,0,0,.512-.2,1.035,1.035,0,0,0,.436-.933c-.008-1.024,0-2.056,0-3.081a5.748,5.748,0,0,0-.038-.627,1.085,1.085,0,0,0-1.024-.91c-.39,0-.787-.008-1.177-.008-.841.008-1.674-.008-2.515.038a.969.969,0,0,0-1.009,1.032c-.031,1.216-.015,2.431,0,3.647a1.014,1.014,0,0,0,1.04,1.047C28.441,107.54,29.068,107.525,29.687,107.525Z" transform="translate(0 -70.467)"/><path class="a" d="M253.482,45.8V42.914h-.78c-.222,0-.443-.023-.673-.008a1.3,1.3,0,0,1-1.193-.635,1.17,1.17,0,0,1-.237-.711c.008-1.812,0-3.624,0-5.435a5.752,5.752,0,0,1,.038-.627,1.33,1.33,0,0,1,1.162-1.124c.558,0,1.108-.031,1.667-.031,1.85-.008,3.692-.008,5.542,0,.183,0,.245-.046.237-.237-.015-.413-.008-.826-.008-1.261h-.42c-.375-.015-.757-.015-1.131-.046a1.326,1.326,0,0,1-1.261-1.292c-.031-.65-.031-1.3-.023-1.949,0-1.33.015-2.668.015-4a1.323,1.323,0,0,1,1.384-1.33c1.689-.008,3.379-.023,5.076-.031,1.2,0,2.393.023,3.593.008a1.317,1.317,0,0,1,1.04.489,1.283,1.283,0,0,1,.359.91c-.023,1.789-.015,3.57-.015,5.359,0,.153-.031.313-.023.466a1.323,1.323,0,0,1-1.422,1.368c-.933-.008-1.865.023-2.8.038-.443.008-.894,0-1.338.015a.364.364,0,0,0-.222.069c-.42.42-.841.849-1.254,1.269a.409.409,0,0,0-.053.092c.076.023.145.054.214.069a1.3,1.3,0,0,1,1.1,1.33c.008,1.9,0,3.792,0,5.68a1.475,1.475,0,0,0,0,.26.982.982,0,0,1-.436.925,1.51,1.51,0,0,1-1.017.382c-1.338-.015-2.676-.008-4.021-.008a.475.475,0,0,0-.375.153q-1.261,1.273-2.538,2.546C253.627,45.666,253.574,45.712,253.482,45.8Zm3.754-4.3c.336,0,.657.008.979,0a.9.9,0,0,0,.994-1c.015-1.261.008-2.515,0-3.776a.922.922,0,0,0-.933-.986c-1.254-.031-2.515-.031-3.776-.008a1,1,0,0,0-1.047,1.063c-.023,1.231-.038,2.462.008,3.692.031.757.4,1,1.04,1.009.573.008,1.147.008,1.728.015a.685.685,0,0,0,.138-.015V39.306c-.252-.015-.474-.038-.7-.054v-.833c.031-.008.046-.023.069-.023.2-.023.474.031.581-.076.115-.122.084-.39.115-.6a.028.028,0,0,1,.008-.023,1.049,1.049,0,0,1,.589-.826,3.691,3.691,0,0,1,1.193-.13v.948c-.252.015-.5.008-.734.046a.347.347,0,0,0-.237.2,1.8,1.8,0,0,0-.008.459h.986v.856c-.329.015-.642.031-.979.054C257.236,40.047,257.236,40.766,257.236,41.492ZM259.254,26.7a4.823,4.823,0,0,1,4.679,4.709h1.116a5.835,5.835,0,0,0-5.795-5.787Zm2.7,4.7h.94c.161,0,.184-.084.168-.222a3.8,3.8,0,0,0-2.515-3.356,4.048,4.048,0,0,0-1.292-.26V28.7A2.75,2.75,0,0,1,261.952,31.4Zm-1.942-1.529a.746.746,0,0,0-.764.7.763.763,0,0,0,.734.826.775.775,0,0,0,.787-.757A.726.726,0,0,0,260.011,29.872Z" transform="translate(-209.369 -0.092)"/><path class="a" d="M137.052,288.8h1.422v.245q-.011,6.513-.038,13.034a.593.593,0,0,1-.092.3,2.629,2.629,0,0,1-.352.42,1.332,1.332,0,0,1-.963.382q-8.612-.011-17.216,0a1.544,1.544,0,0,1-1.238-.6.959.959,0,0,1-.245-.657c0-2.378-.015-4.747-.031-7.125v-.229h1.422v4.3h17.323C137.052,295.5,137.052,292.156,137.052,288.8ZM128.4,299.7a1.527,1.527,0,0,0-1.468,1.445,1.46,1.46,0,0,0,2.92.008A1.53,1.53,0,0,0,128.4,299.7Z" transform="translate(-87.183 -244.464)"/><path class="a" d="M118.7,28.412V26.386c0-.321.031-.635.008-.956a1.2,1.2,0,0,1,.65-1.086,1.373,1.373,0,0,1,.8-.2c1.261-.015,2.53-.038,3.792-.038,2.966-.008,5.94-.008,8.906-.008h.229v4.312Zm10.045-1.376v-.023c.329,0,.665.008.994,0,.772-.015,1.544-.046,2.309-.069.168-.008.3-.061.306-.245q.011-.436,0-.871a.243.243,0,0,0-.26-.252c-.161-.015-.321-.031-.489-.031q-2.729-.011-5.458-.008a5.213,5.213,0,0,0-.688.054c-.306.046-.382.145-.367.451.008.153.023.313.031.466.023.382.076.436.443.451C126.635,26.982,127.69,27,128.745,27.036Z" transform="translate(-87.553)"/><path class="a" d="M232.759,431.385a1.549,1.549,0,0,1,1.46,1.452,1.46,1.46,0,0,1-2.92-.008A1.509,1.509,0,0,1,232.759,431.385Z" transform="translate(-191.544 -376.148)"/><path class="a" d="M72.491,149h.7a.609.609,0,0,1,.023.115c0,.688,0,1.376-.008,2.072a1.325,1.325,0,0,1-.023.245c-.031.252-.122.352-.375.367-.3.023-.6.031-.894.031-.91,0-1.827-.008-2.737-.023-.4-.008-.5-.115-.52-.512-.031-.757-.046-1.514-.061-2.286h.8v.68a1.389,1.389,0,0,0,.871,1.284,1.405,1.405,0,0,0,1.552-.13,1.546,1.546,0,0,0,.673-1.659.436.436,0,0,1-.008-.1A.238.238,0,0,0,72.491,149Z" transform="translate(-41.283 -115.352)"/><path class="a" d="M87.633,143.6a.952.952,0,0,1,1.009.979,1,1,0,0,1-.994.971.972.972,0,0,1-.948-1.024A.9.9,0,0,1,87.633,143.6Z" transform="translate(-57.999 -110.365)"/><path class="a" d="M116.917,127.8v.91H116v-.91Z" transform="translate(-85.059 -95.772)"/></g></svg>