<svg xmlns="http://www.w3.org/2000/svg" width="34" height="43.273" viewBox="0 0 34 43.273"><defs><style>.a{fill:#a5262d;}</style></defs><path class="a" d="M175,500h3.091v3.091H175Zm0,0" transform="translate(-164.182 -469.091)"/><path class="a" d="M50,500h3.091v3.091H50Zm0,0" transform="translate(-46.909 -469.091)"/><path class="a" d="M300,125h3.091v3.091H300Zm0,0" transform="translate(-281.455 -117.273)"/><path class="a" d="M50,250h3.091v3.091H50Zm0,0" transform="translate(-46.909 -234.546)"/><path class="a" d="M50,125h3.091v3.091H50Zm0,0" transform="translate(-46.909 -117.273)"/><path class="a" d="M175,375h3.091v3.091H175Zm0,0" transform="translate(-164.182 -351.818)"/><path class="a" d="M50,375h3.091v3.091H50Zm0,0" transform="translate(-46.909 -351.818)"/><path class="a" d="M300,250h3.091v3.091H300Zm0,0" transform="translate(-281.455 -234.546)"/><path class="a" d="M0,627.318a2.318,2.318,0,0,0,2.318,2.318H20.1A19.248,19.248,0,0,1,20.714,625H0Zm11.591-.773h1.545v1.546H11.591Zm0,0" transform="translate(0 -586.364)"/><path class="a" d="M310.865,271.049l-5.973-5.5v8.764l5.183,5.183-1.092,1.092-7.628-7.628a2.6,2.6,0,0,0-3.459-.266,2.506,2.506,0,0,0-.184,3.709l5.409,5.409a.773.773,0,0,1,.1.975,17.563,17.563,0,0,0-2.955,9.618h12.358V275.037A5.423,5.423,0,0,0,310.865,271.049Zm0,0" transform="translate(-278.619 -249.135)"/><path class="a" d="M18,98.728a4.052,4.052,0,0,1,.293-6,4.159,4.159,0,0,1,5.536.366l.9.9V75H0v32.454H21.177a19.041,19.041,0,0,1,1.791-3.758ZM17,78.091a1.545,1.545,0,0,1,1.545-1.545h3.091a1.545,1.545,0,0,1,1.545,1.545v3.091a1.545,1.545,0,0,1-1.545,1.545H18.545A1.545,1.545,0,0,1,17,81.182Zm0,7.727a1.545,1.545,0,0,1,1.545-1.545h3.091a1.545,1.545,0,0,1,1.545,1.545v3.091a1.545,1.545,0,0,1-1.545,1.545H18.545A1.545,1.545,0,0,1,17,88.909ZM7.727,104.364a1.545,1.545,0,0,1-1.545,1.545H3.091a1.545,1.545,0,0,1-1.545-1.545v-3.091a1.545,1.545,0,0,1,1.545-1.545H6.182a1.545,1.545,0,0,1,1.545,1.545Zm0-7.727a1.545,1.545,0,0,1-1.545,1.545H3.091a1.545,1.545,0,0,1-1.545-1.545V93.545A1.545,1.545,0,0,1,3.091,92H6.182a1.545,1.545,0,0,1,1.545,1.545Zm0-7.727a1.545,1.545,0,0,1-1.545,1.545H3.091a1.545,1.545,0,0,1-1.545-1.545V85.818a1.545,1.545,0,0,1,1.545-1.545H6.182a1.545,1.545,0,0,1,1.545,1.545Zm0-7.727a1.545,1.545,0,0,1-1.545,1.545H3.091a1.545,1.545,0,0,1-1.545-1.545V78.091a1.545,1.545,0,0,1,1.545-1.545H6.182a1.545,1.545,0,0,1,1.545,1.545Zm7.727,23.182a1.545,1.545,0,0,1-1.545,1.545H10.818a1.545,1.545,0,0,1-1.545-1.545v-3.091a1.545,1.545,0,0,1,1.545-1.545h3.091a1.545,1.545,0,0,1,1.545,1.545Zm0-7.727a1.545,1.545,0,0,1-1.545,1.545H10.818a1.545,1.545,0,0,1-1.545-1.545V93.545A1.545,1.545,0,0,1,10.818,92h3.091a1.545,1.545,0,0,1,1.545,1.545Zm0-7.727a1.545,1.545,0,0,1-1.545,1.545H10.818a1.545,1.545,0,0,1-1.545-1.545V85.818a1.545,1.545,0,0,1,1.545-1.545h3.091a1.545,1.545,0,0,1,1.545,1.545Zm0-7.727a1.545,1.545,0,0,1-1.545,1.545H10.818a1.545,1.545,0,0,1-1.545-1.545V78.091a1.545,1.545,0,0,1,1.545-1.545h3.091a1.545,1.545,0,0,1,1.545,1.545Zm0,0" transform="translate(0 -70.364)"/><path class="a" d="M175,125h3.091v3.091H175Zm0,0" transform="translate(-164.182 -117.273)"/><path class="a" d="M175,250h3.091v3.091H175Zm0,0" transform="translate(-164.182 -234.546)"/><path class="a" d="M24.727,2.318A2.318,2.318,0,0,0,22.409,0H2.318A2.318,2.318,0,0,0,0,2.318v.773H24.727Zm0,0"/></svg>