<svg xmlns="http://www.w3.org/2000/svg" width="35.912" height="35.905" viewBox="0 0 35.912 35.905"><defs><style>.a{fill:#a5262d;}.b{fill:#fff;}</style></defs><g transform="translate(-22.7 -16.6)"><path class="a" d="M62.875,38.343V63.934H57.731q-12.78,0-25.553-.008c-2.767-.008-4.755-1.5-4.786-3.937-.1-7.094-.078-14.2-.008-21.3a4.141,4.141,0,0,1,3.4-3.827,3.851,3.851,0,0,1,4.4,2.2c.507,1.208,1.247,1.286,2.307,1.286C45.952,38.327,54.41,38.343,62.875,38.343ZM34.431,56.412c0-5.987.023-11.607-.016-17.227a2.79,2.79,0,0,0-2.861-2.962,2.758,2.758,0,0,0-2.775,2.861c-.047,5.675-.016,11.358-.016,17.274A4.737,4.737,0,0,1,34.431,56.412ZM57.115,44.181H52.477c.624.7,1.091,1.224,1.621,1.824-1.255,1.2-2.471,2.362-3.968,3.8-1.091-1.278-2.237-2.6-3.438-4.007-2.261,1.98-4.248,3.718-6.291,5.5.359.382.639.67.967,1.013,1.731-1.5,3.406-2.954,5.457-4.732,1.239,1.45,2.37,2.791,3.874,4.552,1.59-1.847,2.993-3.477,4.373-5.082l2.05,1.653C57.115,47.034,57.115,45.639,57.115,44.181ZM39.661,56.116l-.437.553c.374.288.748.826,1.123.826,4.419.043,13.335.04,13.335.04h3.331c.109-.164.218-.327.327-.5-.39-.3-.78-.881-1.177-.881C50.66,56.1,45.157,56.116,39.661,56.116Z" transform="translate(-4.263 -16.761)"/><path class="b" d="M26.52,18.112a4.125,4.125,0,0,0-3.406,3.82c-.07,7.1-.094,14.2.008,21.3.031,2.432,2.019,3.929,4.786,3.937q12.78.023,25.553.008H58.6V52.5H22.7V16.6H58.6C58.612,18.26,28.281,17.746,26.52,18.112Z"/></g></svg>