<svg xmlns="http://www.w3.org/2000/svg" width="33.037" height="32.995" viewBox="0 0 33.037 32.995"><defs><style>.a{fill:#a5262d;}</style></defs><g transform="translate(-32.2 -9.706)"><path class="a" d="M32.2,35.12v-.988a6.282,6.282,0,0,0,.3-.929q1-6.426,1.975-12.845c.414-2.781.712-3.093,3.667-3.544a12.145,12.145,0,0,1,.051-2.571c.1-.457.7-1.133,1.1-1.147,2.52-.1,5.054-.1,7.574,0,.407.015,1.024.683,1.111,1.133a12.056,12.056,0,0,1,.051,2.541H52.6a.877.877,0,0,0-.791-.421c-1.481.218-1.975-.428-1.823-1.859a15.533,15.533,0,0,0,0-2.963c-.116-1.322.3-1.924,1.728-1.808,1.365.109,2.745.022,4.117.022,4.749,0,4.705,0,4.749,4.691.015,1.351-.225,2.142-1.779,1.917-.276-.036-.581.167-.871.254a2.645,2.645,0,0,0,1.5.378c2.5.029,3.079.537,3.435,2.97.167,1.14.356,2.273.523,3.413.581,3.87,1.162,7.748,1.765,11.749C54.042,35.12,43.121,35.12,32.2,35.12Zm7.341-20.695V24.8h7.051V14.426ZM55.2,24.9c1.038,0,2.077.007,3.115,0,2.084-.015,2.44-.414,2.135-2.425-.065-.428-.167-.857-.211-1.293A1.54,1.54,0,0,0,58.5,19.639q-3.442-.011-6.884,0A1.441,1.441,0,0,0,50,21.258c0,.654-.007,1.314,0,1.968a1.536,1.536,0,0,0,1.757,1.685C52.909,24.9,54.057,24.9,55.2,24.9Zm-4.313,1.14a6.308,6.308,0,0,0-.813,1.6c-.2,1.053.5,1.22,1.387,1.227.958.007,1.184-.436,1.2-1.3C52.677,26.588,52.307,26.145,50.891,26.044Zm3.819,2.992c1.3-.1,1.924-.24,1.9-1.358-.015-.893-.16-1.474-1.234-1.438-.8.029-1.5.138-1.351,1.118A7.4,7.4,0,0,0,54.71,29.035Zm5.119-2.963-.842-.087a5.686,5.686,0,0,0-.995,1.5c-.2.741.036,1.394,1.06,1.372.806-.022,1.648.022,1.467-1.133A7.352,7.352,0,0,0,59.83,26.073Zm-7.2,5.446c.152-1.038-.378-1.322-1.322-1.314-.893.007-1.263.341-1.278,1.249-.007.937.261,1.394,1.293,1.38C52.278,32.826,52.779,32.535,52.626,31.519Zm3.943-.044c.218-.937-.276-1.263-1.249-1.278s-1.351.385-1.336,1.351c.015.879.3,1.285,1.234,1.278C56.112,32.826,56.736,32.659,56.569,31.475Zm3.965.087c.145-.988-.29-1.358-1.278-1.365s-1.336.407-1.322,1.372c.015.886.319,1.271,1.249,1.263C60.091,32.826,60.694,32.637,60.534,31.562Z" transform="translate(0 0)"/><path class="a" d="M32.2,368.8H65.188c-.363,2.4.937,4.938-1.336,6.92H32.207C32.2,373.4,32.2,371.095,32.2,368.8Zm16.454,4.836c.632-.857,1.314-1.387,1.242-1.779a2,2,0,0,0-1.242-1.3c-.3-.08-1.169.712-1.184,1.14C47.449,372.2,48.066,372.728,48.654,373.636Z" transform="translate(0 -333.019)"/><path class="a" d="M148.9,101.5h4.7c-.073.443-.116,1.126-.2,1.126a38.373,38.373,0,0,1-4.088.058C149.169,102.684,149.067,102.008,148.9,101.5Z" transform="translate(-108.226 -85.128)"/><path class="a" d="M154.831,138.2c-.044,1.38-.044,1.358-3.4,1.263-.886-.022-1.387-.182-.966-1.263Z" transform="translate(-109.538 -119.163)"/><path class="a" d="M151.42,174.8c.407,1.038-.08,1.409-.958,1.205-1.162-.269-2.8.842-3.761-1.205Z" transform="translate(-106.186 -153.106)"/></g></svg>