<svg xmlns="http://www.w3.org/2000/svg" width="26.076" height="26.081" viewBox="0 0 26.076 26.081"><defs><style>.a{fill:#a5262d;}</style></defs><g transform="translate(-36.035 -28.3)"><path class="a" d="M48.909,35.759c-3.815,0-7.629-.03-11.444.018-1.079.012-1.475-.347-1.426-1.432.067-1.542.055-3.1.006-4.637-.03-.951.219-1.408,1.286-1.408q11.755.046,23.5.006c.932,0,1.3.329,1.267,1.267-.049,1.6-.067,3.2.006,4.8.049,1.1-.4,1.42-1.45,1.408C56.745,35.734,52.827,35.759,48.909,35.759Z" transform="translate(0)"/><path class="a" d="M96.209,187.68c0,1.7-.055,3.4.018,5.094.055,1.164-.25,1.694-1.542,1.633-2.108-.1-4.223-.067-6.331-.012-1.036.024-1.481-.268-1.462-1.389q.082-5.4,0-10.816c-.018-1.188.433-1.505,1.542-1.469,2.06.067,4.125.1,6.179-.006,1.347-.067,1.682.475,1.621,1.706C96.148,184.17,96.209,185.925,96.209,187.68Z" transform="translate(-47.757 -143.122)"/><path class="a" d="M60.912,196.6V182.471c0-.713-.165-1.578,1.237-1.139v2.693c0,4.131-.018,8.263.012,12.394.006.969-.14,1.536-1.328,1.529-7.8-.037-15.593-.024-23.393-.012-.865,0-1.347-.189-1.341-1.194.03-5.106.012-10.213.012-15.283,1.158-.664,1.249-.024,1.243.841-.012,4.18-.006,8.367-.006,12.547V196.6Z" transform="translate(-0.06 -143.568)"/><path class="a" d="M268.3,181.757c.347-.256.689-.719,1.042-.731q3.4-.1,6.813,0c.372.012.725.463,1.091.707-.079.14-.165.28-.244.42h-8.318C268.556,182.019,268.428,181.891,268.3,181.757Z" transform="translate(-218.112 -143.372)"/><path class="a" d="M267.984,232.094c2.523,0,5.045-.03,7.568.037.341.006.67.494,1.005.756-.091.146-.177.3-.268.445-2.571,0-5.143.024-7.714-.03-.329-.006-.646-.469-.975-.719C267.734,232.416,267.862,232.252,267.984,232.094Z" transform="translate(-217.454 -191.369)"/><path class="a" d="M268.574,284.1h8.312c.11.1.213.2.323.292-.3.293-.6.829-.92.841-2.37.073-4.747.067-7.117,0-.3-.006-.585-.518-.871-.792C268.385,284.325,268.483,284.216,268.574,284.1Z" transform="translate(-218.112 -240.213)"/><path class="a" d="M268.678,334.4h8.257c.329.8.232,1.225-.768,1.213-2.273-.03-4.54.024-6.813-.043-.36-.012-.7-.469-1.054-.719C268.428,334.7,268.55,334.552,268.678,334.4Z" transform="translate(-218.112 -287.448)"/><path class="a" d="M268.678,385.3h8.257c.329.8.219,1.225-.774,1.213-2.273-.03-4.54.024-6.813-.043-.36-.012-.7-.469-1.048-.725C268.428,385.6,268.556,385.452,268.678,385.3Z" transform="translate(-218.112 -335.246)"/></g></svg>