<svg xmlns="http://www.w3.org/2000/svg" width="31.456" height="31.101" viewBox="0 0 31.456 31.101"><defs><style>.a{fill:#a5262d;}</style></defs><g transform="translate(-19.876 -18.749)"><path class="a" d="M35.508,18.759c3.652,0,7.3-.021,10.956.007,2.3.021,3.165.932,3.395,3.228a7.318,7.318,0,0,0,.716,2.643,5.511,5.511,0,0,1-.96,6.768c-1.857,2.094-4.306,3.151-6.977,2.184a7.209,7.209,0,0,0-5.412.028c-2.129.8-4.1-.494-6.142-.807-1.878-.285-4.014,1.1-5.885.8-4.4-.7-6.379-4.842-4.765-9a11.177,11.177,0,0,0,.7-2.852c.223-2,1.148-2.97,3.221-2.991C28.072,18.731,31.787,18.759,35.508,18.759Zm7.554,3.659c-.682-.557-1.092-1.155-1.5-1.148s-.835.6-1.245.932c.383.431.7,1.071,1.176,1.217C41.8,23.517,42.332,22.9,43.063,22.418Zm3.979,0c-.682-.557-1.092-1.155-1.5-1.148s-.835.6-1.245.932c.383.431.7,1.071,1.176,1.217C45.783,23.517,46.318,22.9,47.042,22.418Z"/><path class="a" d="M50.026,261c-3.624,0-6.942.07-10.253-.07a2.228,2.228,0,0,1-1.621-1.426c-.125-4.494-.077-8.987-.077-13.8a10.013,10.013,0,0,0,9.5.946,1.853,1.853,0,0,1,.967.049c.257.049.5.257.744.257,2.915,0,5.892-.424,8.716.07a12.11,12.11,0,0,0,8.751-1.294v6.657c0,2.254-.021,4.515.007,6.768.014,1.238-.48,1.864-1.76,1.836-1.183-.028-2.372-.007-3.826-.007,0-3.005-.083-5.9.028-8.793.077-1.864-.654-2.476-2.449-2.386-2.254.111-4.515.07-6.768.014-1.468-.035-2.01.605-1.983,2.031C50.061,254.834,50.026,257.811,50.026,261Z" transform="translate(-16.925 -211.164)"/><path class="a" d="M252.559,350.184H246.5V341.6h6.059Z" transform="translate(-210.86 -300.393)"/></g></svg>