<svg xmlns="http://www.w3.org/2000/svg" width="29.608" height="24.9" viewBox="0 0 29.608 24.9"><defs><style>.a{fill:#a5262d;}</style></defs><g transform="translate(-34.6 -68.5)"><path class="a" d="M34.6,85.4c.607-.141,1.214-.289,1.778-.416,0-4.636-.021-9.3.014-13.963a2.288,2.288,0,0,1,2.5-2.5q10.51-.042,21.026,0a2.272,2.272,0,0,1,2.512,2.335c.064,2.166.014,4.332.014,6.5-.155.063-.31.134-.466.2a4.578,4.578,0,0,1-.677-1.453c-.085-1.623-.042-3.253-.028-4.883.007-1.051-.494-1.524-1.538-1.524q-10.287.011-20.582,0c-1.129,0-1.6.508-1.595,1.623q.032,6.075,0,12.143c-.007,1.207.529,1.672,1.708,1.665,3.754-.028,7.5-.007,11.254-.007h1.418c.056.113.113.219.162.332-1.016.974-2,1.99-3.069,2.9a2.336,2.336,0,0,1-1.369.318c-3.013.028-6.026-.071-9.031.042a3.94,3.94,0,0,1-4.029-2.1C34.6,86.189,34.6,85.794,34.6,85.4Z"/><path class="a" d="M237.368,220.433c-1.905-1.439-1.99-2.519-.325-4.212.762-.776,1.5-1.566,2.307-2.3a4.768,4.768,0,0,0,1.976-4.184c-.176-3.323,3.45-5.511,7-4.149-1.08.967-2.039,1.806-2.971,2.667a1.678,1.678,0,0,0,.2,2.582,1.646,1.646,0,0,0,2.484.162c.854-.945,1.708-1.9,2.716-3.02a4.694,4.694,0,0,1-.494,5.094,4.6,4.6,0,0,1-4.671,1.94,1.866,1.866,0,0,0-1.905.663c-1.588,1.609-3.217,3.175-4.833,4.756Z" transform="translate(-187.062 -127.033)"/></g></svg>