<svg xmlns="http://www.w3.org/2000/svg" width="32" height="32" viewBox="0 0 32 32"><defs><style>.a{fill:#a5262d;}</style></defs><g transform="translate(-2 -2)"><path class="a" d="M2,57H5.2v2.667H2Z" transform="translate(0 -25.667)"/><path class="a" d="M2,10H5.2V34H2Z" transform="translate(0 -3.733)"/><path class="a" d="M3.6,2,2,5.2H5.2Z"/><path class="a" d="M10,44.62v5.747a5.2,5.2,0,0,0,.77.6Z" transform="translate(-3.733 -19.889)"/><path class="a" d="M10,21.654c.125-.417.26-.831.418-1.239A9,9,0,0,1,10,19.539Z" transform="translate(-3.733 -8.185)"/><path class="a" d="M26.965,6a17.372,17.372,0,0,0-6.9,1.4,6.447,6.447,0,0,1,1.564,3.4,7.238,7.238,0,0,1-.951,3.3,16.18,16.18,0,0,1,.988,7.8L20.314,33.058c3.122-2.56,2.53-11.591,6.65-11.591,4.8,0,3.2,12.267,8.533,12.267s6.933-5.867,6.933-13.867S35.5,6,26.965,6Zm0,9.067a3.2,3.2,0,1,1,3.2-3.2A3.2,3.2,0,0,1,26.965,15.067ZM32.3,17.2a3.2,3.2,0,1,1,3.2,3.2A3.2,3.2,0,0,1,32.3,17.2Zm4.8,11.733a2.667,2.667,0,1,1,2.667-2.667A2.667,2.667,0,0,1,37.1,28.933Z" transform="translate(-8.431 -1.867)"/><path class="a" d="M15.267,14.467a6.761,6.761,0,0,0,1.067-3.2c0-1.6-2.667-4.267-2.667-4.267S11,9.667,11,11.267a6.761,6.761,0,0,0,1.067,3.2Z" transform="translate(-4.2 -2.333)"/><path class="a" d="M15.538,23H11.526a15.1,15.1,0,0,0-.706,6.7l1.516,12.509a1.2,1.2,0,0,0,2.39,0L16.244,29.7a15.1,15.1,0,0,0-.706-6.7Z" transform="translate(-4.065 -9.8)"/></g></svg>