<svg xmlns="http://www.w3.org/2000/svg" width="45.862" height="43.076" viewBox="0 0 45.862 43.076"><defs><style>.a{fill:#a5262d;}</style></defs><g transform="translate(0 0)"><g transform="translate(0 0)"><path class="a" d="M103.485,20.215,92.306,10.059l-2.628,2.894,13.407,7.261Z" transform="translate(-77.255 -10.059)"/><path class="a" d="M6.258,116.768l.222-.41,0-1.685-1.145,1.26Z" transform="translate(-4.599 -100.181)"/><path class="a" d="M317.466,201.684l-.005,1.685,1.145-1.259-.918-.836Z" transform="translate(-273.484 -174.785)"/><path class="a" d="M141.727,247.7l11.179,10.157,2.628-2.894L142.127,247.7Z" transform="translate(-122.094 -214.776)"/><path class="a" d="M317.526,166.256l0,1.131v.042l.015-.028,1.862-3.438-1.148-.622Z" transform="translate(-273.538 -142.108)"/><path class="a" d="M0,141.688l1.148.622.727-2.914,0-1.131v-.042l-.015.029Z" transform="translate(0 -120.468)"/><path class="a" d="M62.753,29.107l-.338-.183-.339-.184-1.092-.591-1.959,3.617.246.061.412.1.412.1,14.929,3.722Z" transform="translate(-50.848 -25.643)"/><path class="a" d="M171.891,251.852l-.411-.1-14.93-3.721,12.272,6.646.337.183.339.183,1.092.592,1.958-3.617-.246-.061Z" transform="translate(-134.864 -215.063)"/><path class="a" d="M35.293,59.338h.849l15.2.037L38.8,56.249l-.412-.1-.412-.1-.042-.011-.375-.094-.375-.093-1.267-.316-.948,3.806h.325Z" transform="translate(-30.124 -49.232)"/><path class="a" d="M193.946,247.823h-.85l-15.2-.037,12.543,3.126.412.1.413.1.042.011.374.094.375.094,1.267.315.948-3.806h-.324Z" transform="translate(-153.252 -214.854)"/><path class="a" d="M317.6,128.885v.6l.039-.158.094-.375.093-.375.995-3.991-1.21-.3-.009,4.171Z" transform="translate(-273.602 -108.465)"/><path class="a" d="M5.748,169.776l-.094.374-1,3.992,1.209.3.009-4.171,0-.424v-.6l-.04.158Z" transform="translate(-4.014 -147.192)"/><path class="a" d="M43.721,88.428h-.557l-.626,0-.616,0h-.172l-1.389,0-18.636-.045H20l-1.245,0,0,1.7,0,.558,0,.557,0,1.123,0,.788v.789l0,1.091v.511l0,.5,0,.546-.009,3.615v.849l-.01,3.952v.771l-.009,3.923,15.1.036.557,0h1.184l.616,0h.172l1.39,0,18.636.044h1.727l1.245,0,0-1.7,0-.558,0-.558,0-1.122,0-.789v-.789l0-1.091v-.007l0-.5v-.5l0-.546.009-3.615v-.424l0-.425.009-3.953v-.77l.009-3.922-15.1-.036ZM24.542,90.672a3.236,3.236,0,1,1-3.236,3.236A3.236,3.236,0,0,1,24.542,90.672Zm23.494,16.274H21.305v-2.775h26.73v2.775Zm0-4.829H21.305V99.343H48.036Z" transform="translate(-16.11 -77.521)"/></g></g></svg>