<svg xmlns="http://www.w3.org/2000/svg" width="38" height="38" viewBox="0 0 38 38"><defs><style>.a{fill:#a5262d;}</style></defs><path class="a" d="M20.113,11.207V0H0V20.113H11.207V12.452L5.641,15.235V4.952l10.283,5.141L13.7,11.207Z"/><path class="a" d="M109.077,116.81,106,115.272v3.077Z" transform="translate(-98.133 -106.717)"/><g transform="translate(13.434 13.434)"><path class="a" d="M275.327,273.007a8.279,8.279,0,0,1-2.753,4.3H271v4.453h1.574a6.49,6.49,0,0,0,4.914,2.227h2.661l1.67-6.68h-4.14V276.2A3.346,3.346,0,0,0,275.327,273.007Z" transform="translate(-264.32 -266.178)"/><path class="a" d="M181,331h4.453v6.68H181Z" transform="translate(-181 -319.867)"/><path class="a" d="M181,181v8.906h7.332a4.474,4.474,0,0,0,1.574-3.34v-1.113h1.113a5.576,5.576,0,0,1,5.454,4.453h4.878l-2.783,11.133h-4.4a8.652,8.652,0,0,1-5.819-2.227h-.67v2.227H181v4.527h24.566V181Z" transform="translate(-181 -181)"/></g></svg>