<svg xmlns="http://www.w3.org/2000/svg" width="30.643" height="39" viewBox="0 0 30.643 39"><defs><style>.a{fill:#a5262d;}</style></defs><path class="a" d="M175,500h2.786v2.786H175Zm0,0" transform="translate(-165.25 -472.143)"/><path class="a" d="M50,500h2.786v2.786H50Zm0,0" transform="translate(-47.214 -472.143)"/><path class="a" d="M300,125h2.786v2.786H300Zm0,0" transform="translate(-283.286 -118.036)"/><path class="a" d="M50,250h2.786v2.786H50Zm0,0" transform="translate(-47.214 -236.071)"/><path class="a" d="M50,125h2.786v2.786H50Zm0,0" transform="translate(-47.214 -118.036)"/><path class="a" d="M175,375h2.786v2.786H175Zm0,0" transform="translate(-165.25 -354.107)"/><path class="a" d="M50,375h2.786v2.786H50Zm0,0" transform="translate(-47.214 -354.107)"/><path class="a" d="M300,250h2.786v2.786H300Zm0,0" transform="translate(-283.286 -236.071)"/><path class="a" d="M0,627.089a2.09,2.09,0,0,0,2.089,2.089H18.112A17.347,17.347,0,0,1,18.669,625H0Zm10.446-.7h1.393v1.393H10.446Zm0,0" transform="translate(0 -590.179)"/><path class="a" d="M309.493,270.506l-5.383-4.955v7.9l4.671,4.671-.985.985-6.875-6.874a2.345,2.345,0,0,0-3.118-.24,2.258,2.258,0,0,0-.166,3.343l4.875,4.875a.7.7,0,0,1,.087.879,15.829,15.829,0,0,0-2.663,8.668h11.137V274.1A4.887,4.887,0,0,0,309.493,270.506Zm0,0" transform="translate(-280.431 -250.756)"/><path class="a" d="M16.222,96.385a3.652,3.652,0,0,1,.264-5.4,3.749,3.749,0,0,1,4.989.33l.811.811V75H0v29.25H19.086a17.161,17.161,0,0,1,1.614-3.387Zm-.9-18.6a1.393,1.393,0,0,1,1.393-1.393H19.5a1.393,1.393,0,0,1,1.393,1.393v2.786A1.393,1.393,0,0,1,19.5,81.964H16.714a1.393,1.393,0,0,1-1.393-1.393Zm0,6.964a1.393,1.393,0,0,1,1.393-1.393H19.5a1.393,1.393,0,0,1,1.393,1.393v2.786A1.393,1.393,0,0,1,19.5,88.929H16.714a1.393,1.393,0,0,1-1.393-1.393ZM6.964,101.464a1.393,1.393,0,0,1-1.393,1.393H2.786a1.393,1.393,0,0,1-1.393-1.393V98.679a1.393,1.393,0,0,1,1.393-1.393H5.571a1.393,1.393,0,0,1,1.393,1.393Zm0-6.964a1.393,1.393,0,0,1-1.393,1.393H2.786A1.393,1.393,0,0,1,1.393,94.5V91.714a1.393,1.393,0,0,1,1.393-1.393H5.571a1.393,1.393,0,0,1,1.393,1.393Zm0-6.964a1.393,1.393,0,0,1-1.393,1.393H2.786a1.393,1.393,0,0,1-1.393-1.393V84.75a1.393,1.393,0,0,1,1.393-1.393H5.571A1.393,1.393,0,0,1,6.964,84.75Zm0-6.964a1.393,1.393,0,0,1-1.393,1.393H2.786a1.393,1.393,0,0,1-1.393-1.393V77.786a1.393,1.393,0,0,1,1.393-1.393H5.571a1.393,1.393,0,0,1,1.393,1.393Zm6.964,20.893a1.393,1.393,0,0,1-1.393,1.393H9.75a1.393,1.393,0,0,1-1.393-1.393V98.679A1.393,1.393,0,0,1,9.75,97.286h2.786a1.393,1.393,0,0,1,1.393,1.393Zm0-6.964a1.393,1.393,0,0,1-1.393,1.393H9.75A1.393,1.393,0,0,1,8.357,94.5V91.714A1.393,1.393,0,0,1,9.75,90.321h2.786a1.393,1.393,0,0,1,1.393,1.393Zm0-6.964a1.393,1.393,0,0,1-1.393,1.393H9.75a1.393,1.393,0,0,1-1.393-1.393V84.75A1.393,1.393,0,0,1,9.75,83.357h2.786a1.393,1.393,0,0,1,1.393,1.393Zm0-6.964a1.393,1.393,0,0,1-1.393,1.393H9.75a1.393,1.393,0,0,1-1.393-1.393V77.786A1.393,1.393,0,0,1,9.75,76.393h2.786a1.393,1.393,0,0,1,1.393,1.393Zm0,0" transform="translate(0 -70.821)"/><path class="a" d="M175,125h2.786v2.786H175Zm0,0" transform="translate(-165.25 -118.036)"/><path class="a" d="M175,250h2.786v2.786H175Zm0,0" transform="translate(-165.25 -236.071)"/><path class="a" d="M22.286,2.089A2.09,2.09,0,0,0,20.2,0H2.089A2.09,2.09,0,0,0,0,2.089v.7H22.286Zm0,0"/></svg>