<svg xmlns="http://www.w3.org/2000/svg" width="36" height="36" viewBox="0 0 36 36"><defs><style>.a{fill:#a5262d;}</style></defs><path class="a" d="M195.985,380.185v-5.721a13.653,13.653,0,0,0-3.848.735C193.015,377.878,194.409,379.773,195.985,380.185Z" transform="translate(-178.627 -348.134)"/><path class="a" d="M179.118,306.316a14.865,14.865,0,0,1,4.2-.77v-3.831h-4.805A21.767,21.767,0,0,0,179.118,306.316Z" transform="translate(-165.962 -280.501)"/><path class="a" d="M178.514,222.578h4.805v-3.831a14.869,14.869,0,0,1-4.2-.771A21.76,21.76,0,0,0,178.514,222.578Z" transform="translate(-165.962 -202.65)"/><path class="a" d="M195.985,135V129.28c-1.576.413-2.969,2.307-3.848,4.989A13.653,13.653,0,0,0,195.985,135Z" transform="translate(-178.627 -120.19)"/><path class="a" d="M268.991,375.224a13.652,13.652,0,0,0-3.848-.733v5.721C266.719,379.8,268.112,377.9,268.991,375.224Z" transform="translate(-246.5 -348.16)"/><path class="a" d="M269.345,217.993a14.864,14.864,0,0,1-4.2.77v3.831h4.805A21.769,21.769,0,0,0,269.345,217.993Z" transform="translate(-246.5 -202.665)"/><path class="a" d="M269.948,301.714h-4.805v3.831a14.868,14.868,0,0,1,4.2.771A21.761,21.761,0,0,0,269.948,301.714Z" transform="translate(-246.5 -280.5)"/><path class="a" d="M147.153,135.771a11.571,11.571,0,0,0-4.46,2.654,11.77,11.77,0,0,0,2.271,1.4A11.813,11.813,0,0,1,147.153,135.771Z" transform="translate(-132.66 -126.225)"/><path class="a" d="M142.693,393.168a11.572,11.572,0,0,0,4.46,2.654,11.813,11.813,0,0,1-2.189-4.05A11.76,11.76,0,0,0,142.693,393.168Z" transform="translate(-132.66 -364.226)"/><path class="a" d="M342.862,193.627h4.805a11.507,11.507,0,0,0-2.685-6.792,13.037,13.037,0,0,1-2.794,1.713A22.922,22.922,0,0,1,342.862,193.627Z" transform="translate(-318.129 -173.698)"/><path class="a" d="M97.372,188.565a13.042,13.042,0,0,1-2.794-1.712,11.507,11.507,0,0,0-2.685,6.791H96.7A22.929,22.929,0,0,1,97.372,188.565Z" transform="translate(-85.433 -173.715)"/><path class="a" d="M342.19,306.793a13.04,13.04,0,0,1,2.794,1.712,11.507,11.507,0,0,0,2.685-6.791h-4.805A22.927,22.927,0,0,1,342.19,306.793Z" transform="translate(-318.13 -280.5)"/><path class="a" d="M305.874,395.795a11.571,11.571,0,0,0,4.46-2.654,11.77,11.77,0,0,0-2.271-1.4A11.813,11.813,0,0,1,305.874,395.795Z" transform="translate(-284.367 -364.199)"/><path class="a" d="M34.071,0H1.929A1.929,1.929,0,0,0,0,1.929V3.857H36V1.929A1.929,1.929,0,0,0,34.071,0ZM3.214,2.571H2.571a.643.643,0,0,1,0-1.286h.643a.643.643,0,0,1,0,1.286Zm3.028-.186a.743.743,0,0,1-.212.135.606.606,0,0,1-.489,0,.742.742,0,0,1-.212-.135.652.652,0,0,1,0-.913.743.743,0,0,1,.212-.135.589.589,0,0,1,.489,0,.742.742,0,0,1,.212.135A.652.652,0,0,1,6.242,2.385Zm2.706-.212a.742.742,0,0,1-.135.212.652.652,0,0,1-.913,0,.743.743,0,0,1-.135-.212.606.606,0,0,1,0-.489A.742.742,0,0,1,7.9,1.472.643.643,0,0,1,9,1.929.54.54,0,0,1,8.949,2.173Zm24.48.4H11.571a.643.643,0,0,1,0-1.286H33.429a.643.643,0,0,1,0,1.286Z"/><path class="a" d="M265.143,129.307v5.721a13.651,13.651,0,0,0,3.848-.735C268.112,131.614,266.719,129.72,265.143,129.307Z" transform="translate(-246.5 -120.215)"/><path class="a" d="M0,102.072A1.929,1.929,0,0,0,1.929,104H34.071A1.929,1.929,0,0,0,36,102.072V73.143H0ZM8.524,79.908h0a.632.632,0,0,1,.055-.094.575.575,0,0,1,.1-.072,12.8,12.8,0,0,1,18.643,0,.572.572,0,0,1,.1.072.628.628,0,0,1,.055.094,12.779,12.779,0,0,1,0,17.324.632.632,0,0,1-.055.094.591.591,0,0,1-.09.064A12.8,12.8,0,0,1,8.674,97.4a.592.592,0,0,1-.1-.071.629.629,0,0,1-.055-.094A12.779,12.779,0,0,1,8.524,79.908Z" transform="translate(0 -68)"/><path class="a" d="M97.373,306.793a22.922,22.922,0,0,1-.673-5.079H91.9a11.507,11.507,0,0,0,2.685,6.792A13.038,13.038,0,0,1,97.373,306.793Z" transform="translate(-85.434 -280.5)"/><path class="a" d="M310.334,138.425a11.571,11.571,0,0,0-4.46-2.654,11.812,11.812,0,0,1,2.189,4.05A11.76,11.76,0,0,0,310.334,138.425Z" transform="translate(-284.367 -126.225)"/></svg>